<svg xmlns="http://www.w3.org/2000/svg" width="50" height="36" viewBox="0 0 50 36" version="1.1">
	<path d="M 11.630 2.750 C 9.743 6.402, 9.192 10.557, 10.631 10.290 C 11.253 10.174, 12.560 10.962, 13.536 12.040 C 15.274 13.960, 15.215 14, 10.655 14 L 6 14 5.921 18.750 C 5.878 21.363, 5.615 22.938, 5.338 22.250 C 5.060 21.562, 4.473 21, 4.032 21 C 2.583 21, 0.010 25.861, 0.618 27.448 C 1.380 29.433, 5.605 29.472, 6.362 27.500 C 7.341 24.949, 8.791 25.833, 10.053 29.750 C 10.717 31.813, 11.707 34.063, 12.253 34.750 C 13.587 36.431, 16.712 36.335, 17.700 34.583 C 18.140 33.804, 20.668 30.879, 23.318 28.083 C 27.220 23.967, 28.766 23, 31.446 23 C 33.266 23, 35.263 22.388, 35.884 21.639 C 36.506 20.891, 39.533 20.018, 42.612 19.701 C 51.527 18.781, 51.478 16.953, 42.520 16.210 C 39.507 15.960, 36.528 15.136, 35.899 14.378 C 35.270 13.620, 33.279 13, 31.475 13 C 28.840 13, 27.243 12.008, 23.365 7.961 C 20.709 5.190, 18.168 2.265, 17.718 1.461 C 16.390 -0.913, 13.171 -0.232, 11.630 2.750 M 1.039 7.928 C -0.067 9.994, 0.601 13, 2.166 13 C 2.690 13, 2.869 13.403, 2.565 13.895 C 2.260 14.388, 2.684 15.048, 3.506 15.364 C 4.529 15.756, 5 15.298, 5 13.910 C 5 12.794, 5.403 12.131, 5.895 12.435 C 7.922 13.688, 7.686 10.053, 5.613 8.106 C 2.853 5.514, 2.341 5.494, 1.039 7.928 M 2.211 18.399 C 2.920 19.169, 3.658 19.649, 3.850 19.466 C 4.443 18.902, 2.940 17, 1.902 17 C 1.362 17, 1.501 17.630, 2.211 18.399" stroke="none" fill="black" fill-rule="evenodd"/>
</svg>